# xmcd
#
# Track frame offsets: 
#        150
#        15232
#        28187
#        57510
#        71787
#        85307
#        99237
#        110965
#        130610
#        144522
#        160445
#        174735
#        194512
#        221242
#        240007
#        262120
#        299782
#        330055
#
# Disc length: 4606 seconds
#
# Revision: 3
# Processed by: cddbd v1.5.2PL0 Copyright (c) Steve Scherf et al.
# Submitted via: ExactAudioCopy v0.99pb5
#
DISCID=0f11fc12
DTITLE=Rose Tattoo - Never Too Loud CD1
DYEAR=1997
DGENRE=Rock
TTITLE0=Rock 'n Roll Outlaw
TTITLE1=Nice Boys
TTITLE2=The Butcher and Fast Eddie
TTITLE3=One of the Boys
TTITLE4=Remedy
TTITLE5=Bad Boy For Love
TTITLE6=Tramp
TTITLE7=Out of this place
TTITLE8=All the Lessons
TTITLE9=Assault and Battery
TTITLE10=Magnum Maid
TTITLE11=Rock 'n Roll is King
TTITLE12=Chinese Dunkirk
TTITLE13=Suicide City
TTITLE14=Bad Boy (live)
TTITLE15=Nice Boys (live)
TTITLE16=The Butcher and Fast Eddie (live)
TTITLE17=Rock 'n Roll Outlaws (live)
EXTD=
EXTT0=
EXTT1=
EXTT2=
EXTT3=
EXTT4=
EXTT5=
EXTT6=
EXTT7=
EXTT8=
EXTT9=
EXTT10=
EXTT11=
EXTT12=
EXTT13=
EXTT14=
EXTT15=
EXTT16=
EXTT17=
PLAYORDER=
